<mxfile host="app.diagrams.net" modified="2023-01-28T06:25:27.733Z" agent="5.0 (Windows)" etag="798L_BUxg0Eg35Rb9pJQ" version="20.8.13" type="github">
  <diagram name="第 1 页" id="2ZW0KYVSkUXRpBZuDb9u">
    <mxGraphModel dx="1195" dy="628" grid="0" gridSize="10" guides="1" tooltips="1" connect="1" arrows="1" fold="1" page="1" pageScale="1" pageWidth="827" pageHeight="1169" math="0" shadow="0">
      <root>
        <mxCell id="0" />
        <mxCell id="1" parent="0" />
        <mxCell id="WXAW53ikkM1VAYaZ2hDF-23" style="rounded=0;orthogonalLoop=1;jettySize=auto;html=1;exitX=0;exitY=1;exitDx=0;exitDy=0;entryX=1;entryY=0;entryDx=0;entryDy=0;" edge="1" parent="1" source="WXAW53ikkM1VAYaZ2hDF-1" target="WXAW53ikkM1VAYaZ2hDF-2">
          <mxGeometry relative="1" as="geometry" />
        </mxCell>
        <mxCell id="WXAW53ikkM1VAYaZ2hDF-24" style="edgeStyle=none;rounded=0;orthogonalLoop=1;jettySize=auto;html=1;entryX=0.5;entryY=0;entryDx=0;entryDy=0;" edge="1" parent="1" source="WXAW53ikkM1VAYaZ2hDF-1" target="WXAW53ikkM1VAYaZ2hDF-3">
          <mxGeometry relative="1" as="geometry" />
        </mxCell>
        <mxCell id="WXAW53ikkM1VAYaZ2hDF-25" style="edgeStyle=none;rounded=0;orthogonalLoop=1;jettySize=auto;html=1;exitX=1;exitY=1;exitDx=0;exitDy=0;" edge="1" parent="1" source="WXAW53ikkM1VAYaZ2hDF-1" target="WXAW53ikkM1VAYaZ2hDF-4">
          <mxGeometry relative="1" as="geometry" />
        </mxCell>
        <mxCell id="WXAW53ikkM1VAYaZ2hDF-1" value="根结点" style="ellipse;whiteSpace=wrap;html=1;aspect=fixed;fillColor=#fff2cc;strokeColor=#d6b656;fillStyle=auto;gradientColor=none;" vertex="1" parent="1">
          <mxGeometry x="385" y="32" width="40" height="40" as="geometry" />
        </mxCell>
        <mxCell id="WXAW53ikkM1VAYaZ2hDF-26" style="edgeStyle=none;rounded=0;orthogonalLoop=1;jettySize=auto;html=1;exitX=0;exitY=1;exitDx=0;exitDy=0;entryX=0.5;entryY=0;entryDx=0;entryDy=0;dashed=1;" edge="1" parent="1" source="WXAW53ikkM1VAYaZ2hDF-2" target="WXAW53ikkM1VAYaZ2hDF-5">
          <mxGeometry relative="1" as="geometry" />
        </mxCell>
        <mxCell id="WXAW53ikkM1VAYaZ2hDF-27" style="edgeStyle=none;rounded=0;orthogonalLoop=1;jettySize=auto;html=1;exitX=0.5;exitY=1;exitDx=0;exitDy=0;entryX=0.5;entryY=0;entryDx=0;entryDy=0;" edge="1" parent="1" source="WXAW53ikkM1VAYaZ2hDF-2" target="WXAW53ikkM1VAYaZ2hDF-6">
          <mxGeometry relative="1" as="geometry" />
        </mxCell>
        <mxCell id="WXAW53ikkM1VAYaZ2hDF-28" style="edgeStyle=none;rounded=0;orthogonalLoop=1;jettySize=auto;html=1;exitX=1;exitY=1;exitDx=0;exitDy=0;entryX=0.5;entryY=0;entryDx=0;entryDy=0;" edge="1" parent="1" source="WXAW53ikkM1VAYaZ2hDF-2" target="WXAW53ikkM1VAYaZ2hDF-7">
          <mxGeometry relative="1" as="geometry" />
        </mxCell>
        <mxCell id="WXAW53ikkM1VAYaZ2hDF-2" value="1" style="ellipse;whiteSpace=wrap;html=1;aspect=fixed;fillColor=#fff2cc;strokeColor=#d6b656;fillStyle=auto;gradientColor=none;" vertex="1" parent="1">
          <mxGeometry x="233" y="143" width="40" height="40" as="geometry" />
        </mxCell>
        <mxCell id="WXAW53ikkM1VAYaZ2hDF-29" style="edgeStyle=none;rounded=0;orthogonalLoop=1;jettySize=auto;html=1;exitX=0;exitY=1;exitDx=0;exitDy=0;entryX=0.658;entryY=0.058;entryDx=0;entryDy=0;entryPerimeter=0;" edge="1" parent="1" source="WXAW53ikkM1VAYaZ2hDF-3" target="WXAW53ikkM1VAYaZ2hDF-8">
          <mxGeometry relative="1" as="geometry" />
        </mxCell>
        <mxCell id="WXAW53ikkM1VAYaZ2hDF-30" style="edgeStyle=none;rounded=0;orthogonalLoop=1;jettySize=auto;html=1;exitX=0.5;exitY=1;exitDx=0;exitDy=0;dashed=1;" edge="1" parent="1" source="WXAW53ikkM1VAYaZ2hDF-3" target="WXAW53ikkM1VAYaZ2hDF-9">
          <mxGeometry relative="1" as="geometry" />
        </mxCell>
        <mxCell id="WXAW53ikkM1VAYaZ2hDF-31" style="edgeStyle=none;rounded=0;orthogonalLoop=1;jettySize=auto;html=1;exitX=1;exitY=1;exitDx=0;exitDy=0;" edge="1" parent="1" source="WXAW53ikkM1VAYaZ2hDF-3" target="WXAW53ikkM1VAYaZ2hDF-10">
          <mxGeometry relative="1" as="geometry" />
        </mxCell>
        <mxCell id="WXAW53ikkM1VAYaZ2hDF-3" value="2" style="ellipse;whiteSpace=wrap;html=1;aspect=fixed;fillColor=#fff2cc;strokeColor=#d6b656;fillStyle=auto;gradientColor=none;" vertex="1" parent="1">
          <mxGeometry x="385" y="146" width="40" height="40" as="geometry" />
        </mxCell>
        <mxCell id="WXAW53ikkM1VAYaZ2hDF-32" style="edgeStyle=none;rounded=0;orthogonalLoop=1;jettySize=auto;html=1;exitX=0;exitY=1;exitDx=0;exitDy=0;" edge="1" parent="1" source="WXAW53ikkM1VAYaZ2hDF-4" target="WXAW53ikkM1VAYaZ2hDF-11">
          <mxGeometry relative="1" as="geometry" />
        </mxCell>
        <mxCell id="WXAW53ikkM1VAYaZ2hDF-33" style="edgeStyle=none;rounded=0;orthogonalLoop=1;jettySize=auto;html=1;exitX=0.5;exitY=1;exitDx=0;exitDy=0;entryX=0.5;entryY=0;entryDx=0;entryDy=0;" edge="1" parent="1" source="WXAW53ikkM1VAYaZ2hDF-4" target="WXAW53ikkM1VAYaZ2hDF-12">
          <mxGeometry relative="1" as="geometry" />
        </mxCell>
        <mxCell id="WXAW53ikkM1VAYaZ2hDF-34" style="edgeStyle=none;rounded=0;orthogonalLoop=1;jettySize=auto;html=1;exitX=1;exitY=1;exitDx=0;exitDy=0;entryX=0.5;entryY=0;entryDx=0;entryDy=0;dashed=1;" edge="1" parent="1" source="WXAW53ikkM1VAYaZ2hDF-4" target="WXAW53ikkM1VAYaZ2hDF-13">
          <mxGeometry relative="1" as="geometry" />
        </mxCell>
        <mxCell id="WXAW53ikkM1VAYaZ2hDF-4" value="3" style="ellipse;whiteSpace=wrap;html=1;aspect=fixed;fillColor=#fff2cc;strokeColor=#d6b656;fillStyle=auto;gradientColor=none;" vertex="1" parent="1">
          <mxGeometry x="536" y="146" width="40" height="40" as="geometry" />
        </mxCell>
        <mxCell id="WXAW53ikkM1VAYaZ2hDF-5" value="1" style="ellipse;whiteSpace=wrap;html=1;aspect=fixed;dashed=1;fillStyle=auto;" vertex="1" parent="1">
          <mxGeometry x="181" y="248" width="40" height="40" as="geometry" />
        </mxCell>
        <mxCell id="WXAW53ikkM1VAYaZ2hDF-41" style="edgeStyle=none;rounded=0;orthogonalLoop=1;jettySize=auto;html=1;exitX=0.5;exitY=1;exitDx=0;exitDy=0;entryX=0.5;entryY=0;entryDx=0;entryDy=0;dashed=1;" edge="1" parent="1" source="WXAW53ikkM1VAYaZ2hDF-6" target="WXAW53ikkM1VAYaZ2hDF-35">
          <mxGeometry relative="1" as="geometry" />
        </mxCell>
        <mxCell id="WXAW53ikkM1VAYaZ2hDF-42" style="edgeStyle=none;rounded=0;orthogonalLoop=1;jettySize=auto;html=1;exitX=0.5;exitY=1;exitDx=0;exitDy=0;entryX=0.5;entryY=0;entryDx=0;entryDy=0;dashed=1;" edge="1" parent="1" source="WXAW53ikkM1VAYaZ2hDF-6" target="WXAW53ikkM1VAYaZ2hDF-36">
          <mxGeometry relative="1" as="geometry" />
        </mxCell>
        <mxCell id="WXAW53ikkM1VAYaZ2hDF-43" style="edgeStyle=none;rounded=0;orthogonalLoop=1;jettySize=auto;html=1;entryX=0.5;entryY=0;entryDx=0;entryDy=0;exitX=0.5;exitY=1;exitDx=0;exitDy=0;" edge="1" parent="1" source="WXAW53ikkM1VAYaZ2hDF-6" target="WXAW53ikkM1VAYaZ2hDF-37">
          <mxGeometry relative="1" as="geometry" />
        </mxCell>
        <mxCell id="WXAW53ikkM1VAYaZ2hDF-6" value="2" style="ellipse;whiteSpace=wrap;html=1;aspect=fixed;fillColor=#fff2cc;strokeColor=#d6b656;fillStyle=auto;gradientColor=none;" vertex="1" parent="1">
          <mxGeometry x="226" y="248" width="40" height="40" as="geometry" />
        </mxCell>
        <mxCell id="WXAW53ikkM1VAYaZ2hDF-45" style="edgeStyle=none;rounded=0;orthogonalLoop=1;jettySize=auto;html=1;exitX=0.5;exitY=1;exitDx=0;exitDy=0;entryX=0.5;entryY=0;entryDx=0;entryDy=0;dashed=1;" edge="1" parent="1" source="WXAW53ikkM1VAYaZ2hDF-7" target="WXAW53ikkM1VAYaZ2hDF-38">
          <mxGeometry relative="1" as="geometry" />
        </mxCell>
        <mxCell id="WXAW53ikkM1VAYaZ2hDF-46" style="edgeStyle=none;rounded=0;orthogonalLoop=1;jettySize=auto;html=1;exitX=0.5;exitY=1;exitDx=0;exitDy=0;entryX=0.5;entryY=0;entryDx=0;entryDy=0;" edge="1" parent="1" source="WXAW53ikkM1VAYaZ2hDF-7" target="WXAW53ikkM1VAYaZ2hDF-39">
          <mxGeometry relative="1" as="geometry" />
        </mxCell>
        <mxCell id="WXAW53ikkM1VAYaZ2hDF-47" style="edgeStyle=none;rounded=0;orthogonalLoop=1;jettySize=auto;html=1;exitX=0.5;exitY=1;exitDx=0;exitDy=0;entryX=0.5;entryY=0;entryDx=0;entryDy=0;dashed=1;" edge="1" parent="1" source="WXAW53ikkM1VAYaZ2hDF-7" target="WXAW53ikkM1VAYaZ2hDF-40">
          <mxGeometry relative="1" as="geometry" />
        </mxCell>
        <mxCell id="WXAW53ikkM1VAYaZ2hDF-7" value="3" style="ellipse;whiteSpace=wrap;html=1;aspect=fixed;fillColor=#fff2cc;strokeColor=#d6b656;fillStyle=auto;gradientColor=none;" vertex="1" parent="1">
          <mxGeometry x="273" y="248" width="40" height="40" as="geometry" />
        </mxCell>
        <mxCell id="WXAW53ikkM1VAYaZ2hDF-60" style="edgeStyle=none;rounded=0;orthogonalLoop=1;jettySize=auto;html=1;exitX=0.5;exitY=1;exitDx=0;exitDy=0;entryX=0.5;entryY=0;entryDx=0;entryDy=0;" edge="1" parent="1" source="WXAW53ikkM1VAYaZ2hDF-8" target="WXAW53ikkM1VAYaZ2hDF-50">
          <mxGeometry relative="1" as="geometry" />
        </mxCell>
        <mxCell id="WXAW53ikkM1VAYaZ2hDF-61" style="edgeStyle=none;rounded=0;orthogonalLoop=1;jettySize=auto;html=1;exitX=0.5;exitY=1;exitDx=0;exitDy=0;entryX=0.5;entryY=0;entryDx=0;entryDy=0;dashed=1;" edge="1" parent="1" source="WXAW53ikkM1VAYaZ2hDF-8" target="WXAW53ikkM1VAYaZ2hDF-49">
          <mxGeometry relative="1" as="geometry" />
        </mxCell>
        <mxCell id="WXAW53ikkM1VAYaZ2hDF-62" style="edgeStyle=none;rounded=0;orthogonalLoop=1;jettySize=auto;html=1;exitX=0.5;exitY=1;exitDx=0;exitDy=0;entryX=0.5;entryY=0;entryDx=0;entryDy=0;dashed=1;" edge="1" parent="1" source="WXAW53ikkM1VAYaZ2hDF-8" target="WXAW53ikkM1VAYaZ2hDF-48">
          <mxGeometry relative="1" as="geometry" />
        </mxCell>
        <mxCell id="WXAW53ikkM1VAYaZ2hDF-8" value="1" style="ellipse;whiteSpace=wrap;html=1;aspect=fixed;fillColor=#fff2cc;strokeColor=#d6b656;fillStyle=auto;gradientColor=none;" vertex="1" parent="1">
          <mxGeometry x="337" y="248" width="40" height="40" as="geometry" />
        </mxCell>
        <mxCell id="WXAW53ikkM1VAYaZ2hDF-9" value="2" style="ellipse;whiteSpace=wrap;html=1;aspect=fixed;fillStyle=auto;dashed=1;" vertex="1" parent="1">
          <mxGeometry x="382" y="248" width="40" height="40" as="geometry" />
        </mxCell>
        <mxCell id="WXAW53ikkM1VAYaZ2hDF-65" style="edgeStyle=none;rounded=0;orthogonalLoop=1;jettySize=auto;html=1;exitX=0.5;exitY=1;exitDx=0;exitDy=0;entryX=0.5;entryY=0;entryDx=0;entryDy=0;" edge="1" parent="1" source="WXAW53ikkM1VAYaZ2hDF-10" target="WXAW53ikkM1VAYaZ2hDF-51">
          <mxGeometry relative="1" as="geometry" />
        </mxCell>
        <mxCell id="WXAW53ikkM1VAYaZ2hDF-67" style="edgeStyle=none;rounded=0;orthogonalLoop=1;jettySize=auto;html=1;exitX=0.5;exitY=1;exitDx=0;exitDy=0;entryX=0.5;entryY=0;entryDx=0;entryDy=0;dashed=1;" edge="1" parent="1" source="WXAW53ikkM1VAYaZ2hDF-10" target="WXAW53ikkM1VAYaZ2hDF-52">
          <mxGeometry relative="1" as="geometry" />
        </mxCell>
        <mxCell id="WXAW53ikkM1VAYaZ2hDF-68" style="edgeStyle=none;rounded=0;orthogonalLoop=1;jettySize=auto;html=1;exitX=0.5;exitY=1;exitDx=0;exitDy=0;entryX=0;entryY=0;entryDx=0;entryDy=0;dashed=1;" edge="1" parent="1" source="WXAW53ikkM1VAYaZ2hDF-10" target="WXAW53ikkM1VAYaZ2hDF-53">
          <mxGeometry relative="1" as="geometry" />
        </mxCell>
        <mxCell id="WXAW53ikkM1VAYaZ2hDF-10" value="3" style="ellipse;whiteSpace=wrap;html=1;aspect=fixed;fillColor=#fff2cc;strokeColor=#d6b656;fillStyle=auto;gradientColor=none;" vertex="1" parent="1">
          <mxGeometry x="429" y="248" width="40" height="40" as="geometry" />
        </mxCell>
        <mxCell id="WXAW53ikkM1VAYaZ2hDF-74" style="edgeStyle=none;rounded=0;orthogonalLoop=1;jettySize=auto;html=1;exitX=0.5;exitY=1;exitDx=0;exitDy=0;entryX=0.5;entryY=0;entryDx=0;entryDy=0;dashed=1;" edge="1" parent="1" source="WXAW53ikkM1VAYaZ2hDF-11" target="WXAW53ikkM1VAYaZ2hDF-56">
          <mxGeometry relative="1" as="geometry" />
        </mxCell>
        <mxCell id="WXAW53ikkM1VAYaZ2hDF-75" style="edgeStyle=none;rounded=0;orthogonalLoop=1;jettySize=auto;html=1;exitX=0.5;exitY=1;exitDx=0;exitDy=0;entryX=0.333;entryY=0.044;entryDx=0;entryDy=0;entryPerimeter=0;" edge="1" parent="1" source="WXAW53ikkM1VAYaZ2hDF-11" target="WXAW53ikkM1VAYaZ2hDF-55">
          <mxGeometry relative="1" as="geometry" />
        </mxCell>
        <mxCell id="WXAW53ikkM1VAYaZ2hDF-76" style="edgeStyle=none;rounded=0;orthogonalLoop=1;jettySize=auto;html=1;exitX=0.5;exitY=1;exitDx=0;exitDy=0;entryX=0;entryY=0;entryDx=0;entryDy=0;dashed=1;" edge="1" parent="1" source="WXAW53ikkM1VAYaZ2hDF-11" target="WXAW53ikkM1VAYaZ2hDF-54">
          <mxGeometry relative="1" as="geometry" />
        </mxCell>
        <mxCell id="WXAW53ikkM1VAYaZ2hDF-11" value="1" style="ellipse;whiteSpace=wrap;html=1;aspect=fixed;fillColor=#fff2cc;strokeColor=#d6b656;fillStyle=auto;gradientColor=none;" vertex="1" parent="1">
          <mxGeometry x="496" y="245" width="40" height="40" as="geometry" />
        </mxCell>
        <mxCell id="WXAW53ikkM1VAYaZ2hDF-69" style="edgeStyle=none;rounded=0;orthogonalLoop=1;jettySize=auto;html=1;entryX=0.5;entryY=0;entryDx=0;entryDy=0;dashed=1;" edge="1" parent="1" target="WXAW53ikkM1VAYaZ2hDF-59">
          <mxGeometry relative="1" as="geometry">
            <mxPoint x="561" y="288" as="sourcePoint" />
          </mxGeometry>
        </mxCell>
        <mxCell id="WXAW53ikkM1VAYaZ2hDF-70" style="edgeStyle=none;rounded=0;orthogonalLoop=1;jettySize=auto;html=1;exitX=0.5;exitY=1;exitDx=0;exitDy=0;entryX=0.5;entryY=0;entryDx=0;entryDy=0;dashed=1;" edge="1" parent="1" source="WXAW53ikkM1VAYaZ2hDF-12" target="WXAW53ikkM1VAYaZ2hDF-58">
          <mxGeometry relative="1" as="geometry" />
        </mxCell>
        <mxCell id="WXAW53ikkM1VAYaZ2hDF-72" style="edgeStyle=none;rounded=0;orthogonalLoop=1;jettySize=auto;html=1;exitX=0.5;exitY=1;exitDx=0;exitDy=0;entryX=0.5;entryY=0;entryDx=0;entryDy=0;" edge="1" parent="1" source="WXAW53ikkM1VAYaZ2hDF-12" target="WXAW53ikkM1VAYaZ2hDF-57">
          <mxGeometry relative="1" as="geometry" />
        </mxCell>
        <mxCell id="WXAW53ikkM1VAYaZ2hDF-12" value="2" style="ellipse;whiteSpace=wrap;html=1;aspect=fixed;fillColor=#fff2cc;strokeColor=#d6b656;fillStyle=auto;gradientColor=none;" vertex="1" parent="1">
          <mxGeometry x="541" y="248" width="40" height="40" as="geometry" />
        </mxCell>
        <mxCell id="WXAW53ikkM1VAYaZ2hDF-13" value="3" style="ellipse;whiteSpace=wrap;html=1;aspect=fixed;fillStyle=auto;dashed=1;" vertex="1" parent="1">
          <mxGeometry x="588" y="248" width="40" height="40" as="geometry" />
        </mxCell>
        <mxCell id="WXAW53ikkM1VAYaZ2hDF-35" value="1" style="ellipse;whiteSpace=wrap;html=1;aspect=fixed;fillStyle=auto;dashed=1;" vertex="1" parent="1">
          <mxGeometry x="66" y="334" width="30" height="30" as="geometry" />
        </mxCell>
        <mxCell id="WXAW53ikkM1VAYaZ2hDF-36" value="2" style="ellipse;whiteSpace=wrap;html=1;aspect=fixed;fillColor=#fff2cc;strokeColor=#d6b656;dashed=1;fillStyle=auto;gradientColor=none;" vertex="1" parent="1">
          <mxGeometry x="103" y="334" width="30" height="30" as="geometry" />
        </mxCell>
        <mxCell id="WXAW53ikkM1VAYaZ2hDF-37" value="3" style="ellipse;whiteSpace=wrap;html=1;aspect=fixed;fillColor=#fff2cc;strokeColor=#d6b656;fillStyle=auto;gradientColor=none;" vertex="1" parent="1">
          <mxGeometry x="140" y="334" width="30" height="30" as="geometry" />
        </mxCell>
        <mxCell id="WXAW53ikkM1VAYaZ2hDF-38" value="1" style="ellipse;whiteSpace=wrap;html=1;aspect=fixed;dashed=1;fillStyle=auto;" vertex="1" parent="1">
          <mxGeometry x="184" y="334" width="30" height="30" as="geometry" />
        </mxCell>
        <mxCell id="WXAW53ikkM1VAYaZ2hDF-39" value="2" style="ellipse;whiteSpace=wrap;html=1;aspect=fixed;fillColor=#fff2cc;strokeColor=#d6b656;fillStyle=auto;gradientColor=none;" vertex="1" parent="1">
          <mxGeometry x="221" y="334" width="30" height="30" as="geometry" />
        </mxCell>
        <mxCell id="WXAW53ikkM1VAYaZ2hDF-40" value="3" style="ellipse;whiteSpace=wrap;html=1;aspect=fixed;fillColor=#fff2cc;strokeColor=#d6b656;dashed=1;fillStyle=auto;gradientColor=none;" vertex="1" parent="1">
          <mxGeometry x="258" y="334" width="30" height="30" as="geometry" />
        </mxCell>
        <mxCell id="WXAW53ikkM1VAYaZ2hDF-48" value="1" style="ellipse;whiteSpace=wrap;html=1;aspect=fixed;fillStyle=auto;dashed=1;" vertex="1" parent="1">
          <mxGeometry x="308" y="334" width="30" height="30" as="geometry" />
        </mxCell>
        <mxCell id="WXAW53ikkM1VAYaZ2hDF-49" value="2" style="ellipse;whiteSpace=wrap;html=1;aspect=fixed;dashed=1;fillStyle=auto;" vertex="1" parent="1">
          <mxGeometry x="345" y="334" width="30" height="30" as="geometry" />
        </mxCell>
        <mxCell id="WXAW53ikkM1VAYaZ2hDF-50" value="3" style="ellipse;whiteSpace=wrap;html=1;aspect=fixed;fillStyle=auto;fillColor=#fff2cc;strokeColor=#d6b656;" vertex="1" parent="1">
          <mxGeometry x="382" y="334" width="30" height="30" as="geometry" />
        </mxCell>
        <mxCell id="WXAW53ikkM1VAYaZ2hDF-51" value="1" style="ellipse;whiteSpace=wrap;html=1;aspect=fixed;fillStyle=auto;fillColor=#fff2cc;strokeColor=#d6b656;" vertex="1" parent="1">
          <mxGeometry x="426" y="334" width="30" height="30" as="geometry" />
        </mxCell>
        <mxCell id="WXAW53ikkM1VAYaZ2hDF-52" value="2" style="ellipse;whiteSpace=wrap;html=1;aspect=fixed;fillStyle=auto;dashed=1;" vertex="1" parent="1">
          <mxGeometry x="463" y="334" width="30" height="30" as="geometry" />
        </mxCell>
        <mxCell id="WXAW53ikkM1VAYaZ2hDF-53" value="3" style="ellipse;whiteSpace=wrap;html=1;aspect=fixed;dashed=1;fillStyle=auto;" vertex="1" parent="1">
          <mxGeometry x="500" y="334" width="30" height="30" as="geometry" />
        </mxCell>
        <mxCell id="WXAW53ikkM1VAYaZ2hDF-54" value="1" style="ellipse;whiteSpace=wrap;html=1;aspect=fixed;fillStyle=auto;dashed=1;" vertex="1" parent="1">
          <mxGeometry x="563" y="334" width="30" height="30" as="geometry" />
        </mxCell>
        <mxCell id="WXAW53ikkM1VAYaZ2hDF-55" value="2" style="ellipse;whiteSpace=wrap;html=1;aspect=fixed;fillColor=#fff2cc;strokeColor=#d6b656;fillStyle=auto;gradientColor=none;" vertex="1" parent="1">
          <mxGeometry x="600" y="334" width="30" height="30" as="geometry" />
        </mxCell>
        <mxCell id="WXAW53ikkM1VAYaZ2hDF-56" value="3" style="ellipse;whiteSpace=wrap;html=1;aspect=fixed;fillStyle=auto;dashed=1;" vertex="1" parent="1">
          <mxGeometry x="637" y="334" width="30" height="30" as="geometry" />
        </mxCell>
        <mxCell id="WXAW53ikkM1VAYaZ2hDF-57" value="1" style="ellipse;whiteSpace=wrap;html=1;aspect=fixed;fillColor=#fff2cc;strokeColor=#d6b656;fillStyle=auto;gradientColor=none;" vertex="1" parent="1">
          <mxGeometry x="681" y="334" width="30" height="30" as="geometry" />
        </mxCell>
        <mxCell id="WXAW53ikkM1VAYaZ2hDF-58" value="2" style="ellipse;whiteSpace=wrap;html=1;aspect=fixed;fillStyle=auto;dashed=1;" vertex="1" parent="1">
          <mxGeometry x="718" y="334" width="30" height="30" as="geometry" />
        </mxCell>
        <mxCell id="WXAW53ikkM1VAYaZ2hDF-59" value="3" style="ellipse;whiteSpace=wrap;html=1;aspect=fixed;dashed=1;fillStyle=auto;" vertex="1" parent="1">
          <mxGeometry x="755" y="334" width="30" height="30" as="geometry" />
        </mxCell>
        <mxCell id="WXAW53ikkM1VAYaZ2hDF-77" value="2" style="ellipse;whiteSpace=wrap;html=1;aspect=fixed;dashed=1;fillStyle=auto;" vertex="1" parent="1">
          <mxGeometry x="103" y="334" width="30" height="30" as="geometry" />
        </mxCell>
        <mxCell id="WXAW53ikkM1VAYaZ2hDF-78" value="3" style="ellipse;whiteSpace=wrap;html=1;aspect=fixed;dashed=1;fillStyle=auto;" vertex="1" parent="1">
          <mxGeometry x="258" y="334" width="30" height="30" as="geometry" />
        </mxCell>
      </root>
    </mxGraphModel>
  </diagram>
</mxfile>
